<mxfile host="Electron" modified="2023-09-22T13:17:04.026Z" agent="Mozilla/5.0 (Windows NT 10.0; Win64; x64) AppleWebKit/537.36 (KHTML, like Gecko) draw.io/21.7.5 Chrome/114.0.5735.289 Electron/25.8.1 Safari/537.36" etag="FeT9JiA3APqXM307AVq3" version="21.7.5" type="device">
  <diagram id="C5RBs43oDa-KdzZeNtuy" name="Page-1">
    <mxGraphModel dx="988" dy="578" grid="1" gridSize="10" guides="1" tooltips="1" connect="1" arrows="1" fold="1" page="1" pageScale="1" pageWidth="827" pageHeight="1169" math="0" shadow="0">
      <root>
        <mxCell id="WIyWlLk6GJQsqaUBKTNV-0" />
        <mxCell id="WIyWlLk6GJQsqaUBKTNV-1" parent="WIyWlLk6GJQsqaUBKTNV-0" />
        <mxCell id="KNCjhNHm1OXqHKVIBfVx-0" value="Lexer" style="swimlane;fontStyle=1;align=center;verticalAlign=top;childLayout=stackLayout;horizontal=1;startSize=26;horizontalStack=0;resizeParent=1;resizeParentMax=0;resizeLast=0;collapsible=1;marginBottom=0;whiteSpace=wrap;html=1;" vertex="1" parent="WIyWlLk6GJQsqaUBKTNV-1">
          <mxGeometry x="50" y="360" width="270" height="130" as="geometry" />
        </mxCell>
        <mxCell id="KNCjhNHm1OXqHKVIBfVx-1" value="+ &amp;lt;&amp;lt;get&amp;gt;&amp;gt; - &amp;lt;&amp;lt;set&amp;gt;&amp;gt; Expression: string&amp;nbsp;" style="text;strokeColor=none;fillColor=none;align=left;verticalAlign=top;spacingLeft=4;spacingRight=4;overflow=hidden;rotatable=0;points=[[0,0.5],[1,0.5]];portConstraint=eastwest;whiteSpace=wrap;html=1;" vertex="1" parent="KNCjhNHm1OXqHKVIBfVx-0">
          <mxGeometry y="26" width="270" height="24" as="geometry" />
        </mxCell>
        <mxCell id="KNCjhNHm1OXqHKVIBfVx-2" value="" style="line;strokeWidth=1;fillColor=none;align=left;verticalAlign=middle;spacingTop=-1;spacingLeft=3;spacingRight=3;rotatable=0;labelPosition=right;points=[];portConstraint=eastwest;strokeColor=inherit;" vertex="1" parent="KNCjhNHm1OXqHKVIBfVx-0">
          <mxGeometry y="50" width="270" height="8" as="geometry" />
        </mxCell>
        <mxCell id="KNCjhNHm1OXqHKVIBfVx-3" value="+ Lexer(inputExpression: string?)&lt;br&gt;+ GoToNextChar() : void&lt;br&gt;+ GetTokens() : List&amp;lt;Token&amp;gt;&lt;br&gt;+ GetNextNumber() : double" style="text;strokeColor=none;fillColor=none;align=left;verticalAlign=top;spacingLeft=4;spacingRight=4;overflow=hidden;rotatable=0;points=[[0,0.5],[1,0.5]];portConstraint=eastwest;whiteSpace=wrap;html=1;" vertex="1" parent="KNCjhNHm1OXqHKVIBfVx-0">
          <mxGeometry y="58" width="270" height="72" as="geometry" />
        </mxCell>
        <mxCell id="KNCjhNHm1OXqHKVIBfVx-4" value="Token" style="swimlane;fontStyle=1;align=center;verticalAlign=top;childLayout=stackLayout;horizontal=1;startSize=26;horizontalStack=0;resizeParent=1;resizeParentMax=0;resizeLast=0;collapsible=1;marginBottom=0;whiteSpace=wrap;html=1;" vertex="1" parent="WIyWlLk6GJQsqaUBKTNV-1">
          <mxGeometry x="50" y="210" width="270" height="120" as="geometry" />
        </mxCell>
        <mxCell id="KNCjhNHm1OXqHKVIBfVx-5" value="+ readonly &amp;lt;&amp;lt;get&amp;gt;&amp;gt; + &amp;lt;&amp;lt;init&amp;gt;&amp;gt; Type: TokenType&lt;br&gt;+ readonly &amp;lt;&amp;lt;get&amp;gt;&amp;gt; + &amp;lt;&amp;lt;init&amp;gt;&amp;gt; Value: double?" style="text;strokeColor=none;fillColor=none;align=left;verticalAlign=top;spacingLeft=4;spacingRight=4;overflow=hidden;rotatable=0;points=[[0,0.5],[1,0.5]];portConstraint=eastwest;whiteSpace=wrap;html=1;" vertex="1" parent="KNCjhNHm1OXqHKVIBfVx-4">
          <mxGeometry y="26" width="270" height="54" as="geometry" />
        </mxCell>
        <mxCell id="KNCjhNHm1OXqHKVIBfVx-6" value="" style="line;strokeWidth=1;fillColor=none;align=left;verticalAlign=middle;spacingTop=-1;spacingLeft=3;spacingRight=3;rotatable=0;labelPosition=right;points=[];portConstraint=eastwest;strokeColor=inherit;" vertex="1" parent="KNCjhNHm1OXqHKVIBfVx-4">
          <mxGeometry y="80" width="270" height="8" as="geometry" />
        </mxCell>
        <mxCell id="KNCjhNHm1OXqHKVIBfVx-7" value="+ Token(type: TokenType, value: double?)" style="text;strokeColor=none;fillColor=none;align=left;verticalAlign=top;spacingLeft=4;spacingRight=4;overflow=hidden;rotatable=0;points=[[0,0.5],[1,0.5]];portConstraint=eastwest;whiteSpace=wrap;html=1;" vertex="1" parent="KNCjhNHm1OXqHKVIBfVx-4">
          <mxGeometry y="88" width="270" height="32" as="geometry" />
        </mxCell>
        <mxCell id="KNCjhNHm1OXqHKVIBfVx-8" value="&lt;pre style=&quot;margin-top: 0px; margin-bottom: calc(1.5em); padding: var(--su12); border: 0px; font-variant-numeric: inherit; font-variant-east-asian: inherit; font-variant-alternates: inherit; font-weight: 400; font-stretch: inherit; line-height: var(--lh-md); font-family: var(--ff-mono); font-optical-sizing: inherit; font-kerning: inherit; font-feature-settings: inherit; font-variation-settings: inherit; font-size: var(--fs-body1); vertical-align: baseline; box-sizing: inherit; width: auto; max-height: 600px; overflow: auto; background-color: var(--highlight-bg); border-radius: var(--br-md); overflow-wrap: normal; color: var(--highlight-color);&quot;&gt;&lt;code style=&quot;margin: 0px; padding: 0px; border: 0px; font-style: inherit; font-variant: inherit; font-weight: inherit; font-stretch: inherit; line-height: inherit; font-family: var(--ff-mono); font-optical-sizing: inherit; font-kerning: inherit; font-feature-settings: inherit; font-variation-settings: inherit; font-size: var(--_pr-code-fs); vertical-align: baseline; box-sizing: inherit; background-color: transparent; color: var(--black-800); border-radius: 0px;&quot;&gt;+ &amp;lt;&amp;lt;enumeration&amp;gt;&amp;gt;&lt;br&gt;&lt;/code&gt;TokenType&lt;/pre&gt;" style="swimlane;fontStyle=1;align=center;verticalAlign=top;childLayout=stackLayout;horizontal=1;startSize=40;horizontalStack=0;resizeParent=1;resizeParentMax=0;resizeLast=0;collapsible=1;marginBottom=0;whiteSpace=wrap;html=1;" vertex="1" parent="WIyWlLk6GJQsqaUBKTNV-1">
          <mxGeometry x="50" y="20" width="270" height="170" as="geometry">
            <mxRectangle x="460" y="280" width="140" height="60" as="alternateBounds" />
          </mxGeometry>
        </mxCell>
        <mxCell id="KNCjhNHm1OXqHKVIBfVx-9" value="Number&lt;br&gt;&lt;div&gt;Add&lt;/div&gt;&lt;div&gt;Subtract&lt;/div&gt;&lt;div&gt;Multiply&lt;/div&gt;&lt;div&gt;Divide&lt;/div&gt;&lt;div&gt;LeftBracket&lt;/div&gt;&lt;div&gt;RightBracket&lt;/div&gt;&lt;div&gt;EOF&lt;/div&gt;" style="text;strokeColor=none;fillColor=none;align=left;verticalAlign=top;spacingLeft=4;spacingRight=4;overflow=hidden;rotatable=0;points=[[0,0.5],[1,0.5]];portConstraint=eastwest;whiteSpace=wrap;html=1;" vertex="1" parent="KNCjhNHm1OXqHKVIBfVx-8">
          <mxGeometry y="40" width="270" height="130" as="geometry" />
        </mxCell>
      </root>
    </mxGraphModel>
  </diagram>
</mxfile>
